<?xml version="1.0" encoding="UTF-8"?>
<!DOCTYPE svg PUBLIC "-//W3C//DTD SVG 1.1//EN" "http://www.w3.org/Graphics/SVG/1.1/DTD/svg11.dtd">
<!-- Creator: CorelDRAW 2018 (64 Bit Versão de avaliação) -->
<svg xmlns="http://www.w3.org/2000/svg" xml:space="preserve" width="1176px" height="400px" version="1.1" style="shape-rendering:geometricPrecision; text-rendering:geometricPrecision; image-rendering:optimizeQuality; fill-rule:evenodd; clip-rule:evenodd"
viewBox="0 0 898.21 305.77"
 xmlns:xlink="http://www.w3.org/1999/xlink">
 <defs>
  <style type="text/css">
   <![CDATA[
    .fil0 {fill:#008ED0}
    .fil1 {fill:#18171B}
    .fil3 {fill:#8A8A8D}
    .fil8 {fill:#8BD1EC}
    .fil6 {fill:#A3A4A6}
    .fil7 {fill:#A3D5EE}
    .fil4 {fill:#BABABB}
    .fil9 {fill:#C3E3F4}
    .fil5 {fill:#CDCECF}
    .fil2 {fill:#FCFEFE}
   ]]>
  </style>
 </defs>
 <g id="Camada_x0020_1">
  <metadata id="CorelCorpID_0Corel-Layer"/>
  <g id="_1812735150576">
   <path class="fil0" d="M150.69 140.44c9.43,-2.48 14.44,11.82 18.08,18.2l53.42 94.14c2.4,4.27 5.1,8.21 1.62,13.49 -9.26,14.03 -25.4,-14.84 -68.4,-15.31 -22.52,-0.24 -41.51,6.48 -57.78,15.93 -4.1,2.38 -7.98,5.25 -13.36,1.62 -3.65,-2.46 -5.26,-7.56 -2.35,-12.72 4.52,-7.98 8.88,-15.64 13.36,-23.53l40.09 -70.6c3.41,-6.08 8.76,-19.49 15.32,-21.22zm0.41 -47.56c17.73,-2.71 21.32,24.69 3.72,26.85 -17.95,2.21 -21.5,-24.13 -3.72,-26.85zm-22.29 -34.85c4.98,-1.03 9.56,2.91 10.4,7.09 2.56,12.71 -15.53,8.76 -21.36,32.42 -5.79,23.47 11.3,33.19 12.11,39.52 1,7.95 -11.31,22.15 -26.18,-7.05 -16.28,-31.98 7.67,-68.39 25.03,-71.98zm43.77 0.46c8,-3.05 19.26,9.43 22.18,12.82 5.17,6.03 9.71,14.63 11.68,24.22 2.19,10.65 0.95,21.94 -2.86,31.04 -2.92,6.96 -9.85,18.51 -15.49,20.46 -5.26,1.82 -10.11,-1.28 -11.69,-5.27 -4.48,-11.29 15.34,-13.93 12.42,-39.61 -2.58,-22.69 -19.38,-24.87 -21.89,-32.03 -2.01,-5.73 1.44,-10.02 5.65,-11.63zm-63 -32.14c8.15,-2.59 14.96,7.73 9.35,14.66 -1.27,1.57 -13.61,9.76 -16.56,12.49 -28.07,25.92 -30.59,71.89 -3.18,102.33 2.14,2.38 5.24,4.37 4.67,9.69 -0.39,3.67 -3.38,6.97 -6.73,7.77 -16.64,3.97 -59.29,-64.74 -18.59,-120.1 5.98,-8.12 19.92,-23.3 31.04,-26.84zm82.46 -0.05c12.34,-3.26 72.05,46.04 45.99,113.51 -3.82,9.89 -16.8,31.24 -24.29,33.4 -8.83,2.56 -15.33,-7.38 -9.7,-14.8 4.43,-5.84 8.19,-8.4 12.6,-16.45 7.46,-13.64 11.24,-29.53 8.35,-47.46 -3.85,-23.89 -17.3,-39.89 -35.35,-51.28 -7.07,-4.45 -6.49,-14.57 2.4,-16.92zm-56.75 -26.3c-0.43,0.32 0.16,0.47 -1.57,0.47l-10.55 1.37 -0.51 0.45 -22.5 6.01c0,0.68 0.16,0.49 -0.56,0.49l-9.64 3.66c0,0.67 0.16,0.5 -0.5,0.5 -9.64,1.87 -35.09,21.41 -42.08,27.97 -6.9,6.48 -28.09,31.21 -30.29,40.24l-0.48 0.49 -1.39 3.2 -0.46 0.51 -6 14.71 -0.45 0.46c-2.44,10.54 -7.96,22.41 -7.83,35.51 0,2.03 -0.12,1.07 -0.47,1.51l0 29.47c0.72,0.89 0.47,0.69 0.47,2.23l1.37 11.4c0.66,0 0.46,-0.15 0.46,0.59l1.85 9.58c0.68,0 0.48,-0.16 0.48,0.56 0.01,5.34 8.57,24.97 10.89,29.68 4.45,9.05 10.11,17.49 15.89,25.14 9.49,12.54 29.25,31.35 43.74,38.3 0.68,0 0.51,-0.17 0.51,0.5l20.24 9.67 0.47 0.47 11.52 3.66c0.74,0 0.58,-0.2 0.58,0.49l7.72 1.85 0.55 0.46 8.21 1.36 0.89 0.48 1.88 -0.03c0.67,0 0.51,-0.17 0.51,0.5l16.55 1.3c1.49,0 1.74,-0.3 2.64,0.54l10.87 0c0.54,-0.83 1.47,-0.54 2.63,-0.54l18.95 -1.77c0.4,-0.38 -0.47,-0.41 1.34,-0.47l7.75 -1.37 0.55 -0.46 19.83 -6 0.45 -0.45 21.12 -10.15c0,-0.67 -0.15,-0.48 0.55,-0.48 16.21,-8.31 36.5,-28.13 46.58,-42.87l0.46 -0.45c4.99,-7.57 8.75,-13.9 13.06,-22.45 2.08,-4.13 9.45,-21.65 9.52,-26.45 0,-0.77 -0.22,-0.63 0.47,-0.63l1.87 -9.51 0.44 -0.65 1.38 -10.88c0,-0.67 0,-0.68 0.13,-1.32 0.01,-0.09 0.13,-0.16 0.15,-0.35 0.01,-0.19 0.12,-0.22 0.18,-0.33 0,-7.5 0.38,-14.93 0.46,-22.44 0.09,-8.2 -2.3,-15.98 -2.3,-22.12l-0.49 -0.48 -3.66 -16.15 -0.46 -0.45 -1.85 -6.39c-0.66,0 -0.48,0.15 -0.48,-0.53l-3.67 -9.67 -0.47 -0.47c-1.51,-6.79 -14.89,-26.5 -19.25,-31.93 -6.71,-8.36 -17.2,-19.77 -25.93,-25.73l-0.45 -0.45c-3.97,-2.63 -7.89,-5.72 -12.18,-8.58 -4.45,-2.97 -8.94,-5.02 -13.65,-7.57l-0.59 -0.45 -14.63 -5.97c-0.7,0 -0.54,0.19 -0.54,-0.49l-12.37 -3.68 -0.47 -0.47 -9.67 -1.86 -0.5 -0.45 -10.57 -1.37c-1.77,0 -1.13,-0.16 -1.55,-0.47l-35.15 0z"/>
   <path class="fil1" d="M773.72 117.14l0.46 -0.46 5.55 -13.84 0.44 -0.45 1.87 -5.08 0.44 -0.57 1.41 -4.05 0.43 -0.48 0.03 -0.44 0.43 -0.43 5.56 -13.86 0.44 -0.44 3.69 -9.25c0,-0.71 -0.2,-0.57 0.46,-0.57l0.73 -1.82 2.03 5.18 0.44 0.44 0.02 0.37 0.46 0.55 1.39 3.98c0.68,0 0.46,-0.14 0.46,0.63l3.69 9.19 0.46 0.5 8.3 20.32 0.42 0.43 1.42 4.11 0.44 0.5 2.89 7.34 -44.82 0.04 0.46 -1.84zm-4.59 -93.16c0,0.7 0.18,0.54 -0.49,0.54l-3.68 9.14c0,0.82 0.24,0.68 -0.47,0.68l-1.82 4.86 -0.48 0.48 -4.16 10.59 -0.45 0.48 -0.95 2.74 -0.44 0.47 -4.14 10.6 -0.47 0.48 -3.68 9.21c0,0.69 0.19,0.54 -0.47,0.54l-1.37 4.07 -0.47 0.46 -3.7 9.22c0,0.74 0.21,0.6 -0.45,0.6l-16.6 39.99 -0.46 0.47 -5.55 13.82 -0.45 0.52 -5.97 14.7 -0.48 0.48 -4.15 10.59 -0.46 0.46 -3.23 8.3c0,0.8 0.23,0.65 -0.46,0.65l-1.84 4.88 -0.46 0.47 -3.72 9.22 -0.43 0.53 -1.42 4.08 -0.43 0.46c-3.91,8.2 -5.58,6.92 14.29,6.92 8.92,0 17.83,0 26.75,0l1.39 -3.23c0,-0.77 -0.22,-0.63 0.45,-0.63l1.86 -4.9 0.45 -0.45 3.71 -9.24 0.44 -0.51 1.41 -4.1 0.43 -0.43 8.17 -19.45 82.2 0.05 5.08 12.93 0.44 0.44 1.86 4.84c0.73,0 0.48,-0.15 0.48,0.7l3.21 8.32 0.44 0.44 6.39 15.26 43.43 -0.04 -0.46 -2.76 -0.44 -0.47 -7.86 -19.15c-0.71,0 -0.47,0.14 -0.47,-0.68l-3.68 -9.14c-0.67,0 -0.48,0.16 -0.48,-0.54l-22.57 -54.26c-0.72,0 -0.5,0.16 -0.5,-0.62l-3.65 -9.21 -0.48 -0.48 -5.52 -13.82 -0.47 -0.47 -4.14 -10.58 -0.48 -0.49 -5.97 -14.69 -0.44 -0.53 -5.56 -13.82 -0.45 -0.48 -16.61 -39.98 -0.45 -0.6 -0.47 0.01 -42.88 0 -5.05 11.06z"/>
   <path class="fil1" d="M615.55 14.3l-0.45 0.44 -1.16 0.02c0,0.71 0.15,0.47 -0.68,0.47l-11.03 3.68c0,0.65 0.16,0.48 -0.5,0.48l-3.22 1.36 -0.47 0.47 -0.42 -0.01 -0.5 0.43 -11.95 8.34 -0.44 0.51 -0.52 0.43 -4.62 4.59 -0.45 0.46c-4.87,7.24 -11.29,13.25 -13.85,23.52l-0.45 0.53 -1.4 5.93 -0.44 0.87 -0.02 0.97 -0.44 0.54c0,2.35 -0.84,6.87 -1.19,9.8 -0.52,4.38 -0.2,73.87 -0.2,80.05 0,11 -1.42,36.4 -0.04,45.69 0.44,2.95 6.13,1.81 9.73,1.81 6.21,0 32.12,0.72 34.2,-0.46l0.01 -76.33c3.05,-0.93 30.49,-0.33 35.87,-0.33 12.14,0 24.29,0 36.43,0l2.27 -5.43c0,-0.69 -0.18,-0.53 0.49,-0.53l0.93 -2.7 0.46 -0.49 4.17 -10.58 0.44 -0.43 5.51 -13.86c0,-0.66 -0.17,-0.5 0.48,-0.5 2.89,-11.85 15.16,-9.19 -35.04,-9.19 -17.21,0 -34.43,0 -51.64,0l0.01 -6.45 0.45 -0.95c0.72,-8.39 9.6,-17.57 17.04,-19.34l0.48 -0.49 0.79 0.03 1.05 -0.43c13.08,-0.7 27.69,-0.5 41.5,-0.5 5.85,0 39.81,1.29 41.54,-0.92l0.42 -0.62 1.85 -4.91 0.46 -0.46 1.83 -5.08c0,-0.73 -0.2,-0.58 0.47,-0.58l1.87 -4.95 0.44 -0.44 3.24 -8.32c0,-0.78 -0.23,-0.64 0.45,-0.64l1.85 -4.9 0.45 -0.45 3.72 -9.23 0.43 -0.52 0 -1.78 -97.29 -0.01 -12.92 1.39z"/>
   <path class="fil1" d="M487.83 19.83l-0.45 0.49 -1.87 5.04 -0.44 0.61 -1.8 4.93c0,0.66 0.16,0.5 -0.5,0.5l-5.52 13.79 -0.48 0.49 -3.68 9.2c0,0.76 0.21,0.62 -0.47,0.62l0.01 0.76 -0.29 80.96c-0.02,-0.06 -0.12,0.21 -0.18,0.32 0,12.04 -11.79,23.87 -23.82,23.87 -0.32,0.17 -0.32,0.29 -1.08,0.43l-77.46 0.04 -1.87 4.14 -0.43 0.59 -1.83 4.94 -0.48 0.48 -5.52 13.82 -0.47 0.47 -3.7 9.21c0,0.75 0.21,0.6 -0.45,0.6l-3.87 9.47 93.78 0.08c4.95,0.03 8.57,-0.92 12.79,-0.92 0.44,-0.62 -0.77,-0.49 1.04,-0.49l7.28 -1.36c0,-0.67 -0.15,-0.48 0.56,-0.48l5.93 -1.82 0.53 -0.44 11.06 -5.56 0.46 -0.47 14.79 -12.9 0.43 -0.47 5.07 -6.91 0.46 -0.46 6 -11.99 0.46 -0.46 3.26 -12.46 0.43 -1.07 -0.03 -1.69c0.01,-1.79 -0.12,-0.6 0.49,-1.03l0 -131.78 -24.9 0 -3.24 6.91z"/>
   <path class="fil2" d="M193 239.08l0.67 0.77c-2.65,0.25 -0.48,0.17 -1.37,-0.45 -11.82,-4.21 -25.84,-6.92 -39.67,-6.89 -17.42,0.03 -25.33,3.76 -40.26,6.91l40.72 -71.12 39.91 70.78zm-42.31 -98.64c-6.56,1.73 -11.91,15.14 -15.32,21.22l-40.09 70.6c-4.48,7.89 -8.84,15.55 -13.36,23.53 -2.91,5.16 -1.3,10.26 2.35,12.72 5.38,3.63 9.26,0.76 13.36,-1.62 16.27,-9.45 35.26,-16.17 57.78,-15.93 43,0.47 59.14,29.34 68.4,15.31 3.48,-5.28 0.78,-9.22 -1.62,-13.49l-53.42 -94.14c-3.64,-6.38 -8.65,-20.68 -18.08,-18.2z"/>
   <path class="fil2" d="M109.58 26.35c-11.12,3.54 -25.06,18.72 -31.04,26.84 -40.7,55.36 1.95,124.07 18.59,120.1 3.35,-0.8 6.34,-4.1 6.73,-7.77 0.57,-5.32 -2.53,-7.31 -4.67,-9.69 -27.41,-30.44 -24.89,-76.41 3.18,-102.33 2.95,-2.73 15.29,-10.92 16.56,-12.49 5.61,-6.93 -1.2,-17.25 -9.35,-14.66z"/>
   <path class="fil2" d="M192.04 26.3c-8.89,2.35 -9.47,12.47 -2.4,16.92 18.05,11.39 31.5,27.39 35.35,51.28 2.89,17.93 -0.89,33.82 -8.35,47.46 -4.41,8.05 -8.17,10.61 -12.6,16.45 -5.63,7.42 0.87,17.36 9.7,14.8 7.49,-2.16 20.47,-23.51 24.29,-33.4 26.06,-67.47 -33.65,-116.77 -45.99,-113.51z"/>
   <path class="fil0" d="M192.3 239.4l0.7 -0.32 -39.91 -70.78 -40.72 71.12c14.93,-3.15 22.84,-6.88 40.26,-6.91 13.83,-0.03 27.85,2.68 39.67,6.89z"/>
   <path class="fil2" d="M172.58 58.49c-4.21,1.61 -7.66,5.9 -5.65,11.63 2.51,7.16 19.31,9.34 21.89,32.03 2.92,25.68 -16.9,28.32 -12.42,39.61 1.58,3.99 6.43,7.09 11.69,5.27 5.64,-1.95 12.57,-13.5 15.49,-20.46 3.81,-9.1 5.05,-20.39 2.86,-31.04 -1.97,-9.59 -6.51,-18.19 -11.68,-24.22 -2.92,-3.39 -14.18,-15.87 -22.18,-12.82z"/>
   <path class="fil2" d="M128.81 58.03c-17.36,3.59 -41.31,40 -25.03,71.98 14.87,29.2 27.18,15 26.18,7.05 -0.81,-6.33 -17.9,-16.05 -12.11,-39.52 5.83,-23.66 23.92,-19.71 21.36,-32.42 -0.84,-4.18 -5.42,-8.12 -10.4,-7.09z"/>
   <path class="fil1" d="M621.08 246.72l0.48 -0.47c3.62,-0.8 3.3,-1.09 5.88,1.49 1.67,1.67 3.46,3.09 4.72,4.98l8.02 -7.19c3.52,1.59 3.79,0.15 7.11,3.58 1.68,1.74 3.55,4.88 3.78,7.89l0.48 1.25c-0.13,8.04 0.92,13.51 -2.17,19.07 -2.26,4.05 -7.39,8.14 -13.52,8.14 -1.25,0.8 -6.3,0.71 -6.82,0 -5.43,0 -7.62,-2.47 -10.71,-4.64l-0.48 -0.43 -0.45 -0.46 -0.92 -1.35 -0.47 -0.5c-5.07,-9.92 -4,-26.49 5.07,-31.36zm1.86 -7.35l-5.55 1.82 -0.44 0.44 -6.44 6.47c0,0.67 0.17,0.51 -0.48,0.51l-2.77 9.18c0,0.66 0.01,0.64 -0.12,1.27 -0.02,0.07 -0.14,0.37 -0.15,0.31 -0.02,-0.06 -0.13,0.19 -0.19,0.28l0 11.36c0.33,0.45 0.45,-0.12 0.46,1.54l1.85 6.76c0.68,0 0.46,-0.14 0.46,0.62l4.61 6.02 0.46 0.43 1.84 1.38 0.44 0.47c11.59,5.9 12.21,4.03 25.72,2.76 0,-0.67 -0.15,-0.47 0.59,-0.47 6.96,-1.53 14.77,-10.99 14.75,-19.82l0 -11.07 -1.38 -7.84 -0.45 -0.46c-1.1,-4.53 -5.71,-8.78 -9.66,-10.64 -8.53,-4.02 -8.83,-1.58 -13.87,2.8 -4.44,-2.97 -1.62,-4.61 -9.19,-4.61l-0.49 0.49z"/>
   <path class="fil1" d="M803.7 246.72l0.45 -0.45c11.44,-1.04 22.61,-3.58 27.66,5.48l0.44 0.51 1.41 4.72 0.51 1.27 0 13.84 -0.51 0.84c-0.47,6.06 -8.16,12.53 -15.19,12.53 -1.17,0.73 -2.09,0.49 -3.73,0.48 -1.17,0 -2.55,0.27 -3.09,-0.48 -5.46,0 -10.38,-3.65 -12.57,-6.91l-0.45 -0.47 -1.4 -3.25 -0.44 -0.44c-1.22,-11.99 -2.48,-22.76 6.91,-27.67zm1.83 -7.39c-7.58,0.23 -15.78,10.45 -15.66,18.46 0.01,2.18 -0.09,1.03 -0.48,1.52l0 12.02 0.56 1.22 3.59 9.71 0.44 0.43c2.93,4.17 7.09,7.25 12.55,8.68 8.44,2.22 11.63,0.27 18.73,-0.38 0,-0.66 -0.16,-0.47 0.56,-0.47 7.1,-1.57 14.59,-10.9 14.78,-19.82l0 -11.07 -1.41 -7.87 -0.43 -0.43c-1.37,-5.11 -6.48,-9.34 -11.24,-11.38 -4.88,-2.1 -14.98,-1.07 -21.54,-1.07l-0.45 0.45z"/>
   <path class="fil1" d="M862.71 239.36c-14.19,0.12 -14.34,25.06 -1.39,25.78 0.82,0 0.66,-0.23 0.66,0.49 5.24,0 18.71,-0.61 22.43,0.43 2.99,0.84 5.16,2.51 6.46,5.07 2.23,4.37 0.83,5.23 -0.01,9.26l-0.49 0.48 -6.02 4.13 -0.43 0.44 -32.28 0.02 0 6.46 36.38 -0.93 0.51 -0.47c3.38,-0.75 7.93,-5.42 8.78,-8.75l0.44 -0.53 0 -11.02 -0.44 -0.44c-0.87,-3.39 -5.56,-8.93 -9.24,-9.22l-0.47 -0.46c-8.1,-1.91 -33.54,3.33 -29.21,-9.82 2.68,-8.15 24.82,-4.94 35.21,-4.94l0 -6.46 -30.42 0 -0.47 0.48z"/>
   <path class="fil1" d="M370.72 239.34l-1.41 0 -0.89 0.46c-4.81,0.42 -10.74,5.89 -12.9,9.23l-0.47 0.45c-5.24,10.07 -3.86,13.59 -2.77,26.26l0.46 0.5 0 0.83 0.44 0.55c1.15,4.56 8.87,12.49 13.86,12.92l0.45 0.45 25.82 1.09 0.01 -6.62c-6.93,0 -18.12,0.99 -23.65,-0.79 -5.33,-1.73 -10.84,-6.8 -11.4,-12.95 -0.33,-0.44 -0.43,0.14 -0.43,-1.48l0.35 -1.87 35.13 0.03 0 -6.46 -35.51 0 -0.04 -1.38 0.5 -1.31c0.47,-6.01 6.29,-11.46 11.46,-13.06 5.96,-1.85 16.08,-0.85 23.59,-0.85l0 -6.46 -22.12 0 -0.48 0.46z"/>
   <path class="fil1" d="M708.7 244.87l-0.42 -0.45c-1.28,-2.23 -3.83,-4.87 -6.95,-5.05l-0.49 -0.49 -31.45 0 0.12 53.04 6.46 0 0 -46.58c6.14,0 12.3,0.04 18.44,-0.01 8.09,-0.05 9.28,1.14 9.23,9.23 -0.09,12.44 -0.01,24.91 -0.01,37.36l6.46 0c0,-9.87 1.6,-41.38 -1.39,-47.05z"/>
   <path class="fil1" d="M467.23 239.34c0,0.67 0.14,0.46 -0.6,0.46 -5.6,0.49 -11.62,6.67 -14.1,10.8 -4,6.65 -2.96,11.96 -2.96,21.93l0.45 0.94 1.39 5.1 0.44 0.43 3.25 5.05 0.46 0.49 0.47 0.44 0.52 0.44 0.44 0.5c10.39,7.37 11.45,5.88 28.09,6 3.44,0.02 6.03,1.01 6.52,-1.84 0.81,-4.79 -0.43,-4.75 -4.18,-4.66 -5.64,0.12 -11.45,0.09 -17.1,0.02l-0.45 -0.44c-5.9,-0.13 -11.61,-6.09 -12.92,-10.94 -0.7,0 -0.5,0.16 -0.5,-0.59l-0.55 -5.06 0.12 -3.24 0 0 0 -3.23c0,-6.89 5.25,-13.72 10.42,-15.22 0,-0.71 -0.15,-0.49 0.65,-0.49 2.5,-0.14 3.01,-0.93 6.9,-0.91 19.04,0.12 17.54,2.29 17.54,-6.44l-24.3 0.46z"/>
   <path class="fil1" d="M758.96 239.34l-1.37 0 -0.93 0.46c-5.81,0.51 -13.92,8.54 -15.23,13.84l-0.45 0.45c-1.82,7.9 -2.44,16.21 0.39,23.6 1.8,4.68 8.48,12.32 13.9,12.86l0.45 0.44 25.83 1.08 0 -6.61c-6.63,0 -18.5,0.92 -23.65,-0.79 -5.23,-1.74 -10.84,-6.9 -11.39,-12.96 -0.34,-0.64 -0.06,0.59 -0.39,-1.03 -0.07,-0.3 -0.04,-1.03 -0.04,-1.36l0.41 -11.07c0,-0.67 -0.17,-0.51 0.48,-0.51l1.87 -4.56 0.44 -0.44 4.15 -4.17 0.46 -0.51c6.59,-4 17.2,-2.72 27.66,-2.72l0 -6.46 -22.07 0 -0.52 0.46z"/>
   <path class="fil1" d="M512.28 275.87l0.53 0.83c-0.17,4.44 4.6,9.68 7.31,11.54l0.44 0.45c8.26,4.29 10.72,3.23 22.61,3.23l0 -6.46c-11.93,0 -20.59,0.95 -23.7,-8.57 -1.65,-5.05 -0.74,-24.38 -0.74,-31.55l24.44 0 0 -6.46 -40.58 0 0 6.46 9.69 0 0 30.53z"/>
   <path class="fil1" d="M589.28 262.89l5.53 0 0.45 -0.49 0 -11.99c0.06,-5.14 -3.41,-9.6 -7.36,-10.63l-0.43 -0.44 -32.77 -0.49 0 53.07c8.8,0 6.91,3.83 6.91,-19.83 0,-8.92 0,-17.84 0,-26.75 5.69,0 17.59,-0.68 22.54,0.06 8.34,1.23 2.65,13.44 5.13,17.49z"/>
   <path class="fil2" d="M151.1 92.88c-17.78,2.72 -14.23,29.06 3.72,26.85 17.6,-2.16 14.01,-29.56 -3.72,-26.85z"/>
   <path class="fil1" d="M405.31 274.74c0.69,0 0.5,-0.16 0.5,0.57 0.28,5.96 8.29,12.81 13.19,14.9 6.48,2.75 17.56,1.71 26.42,1.71l0 -6.46 -19.83 -0.03 -0.43 -0.43 -6.48 -2.29 -0.51 -0.48 -3.64 -3.68 -0.51 -0.47c-3.39,-7.22 -2.72,-7.75 -2.72,-17.98 0,-7.08 0,-14.15 0,-21.22l-6.46 0 0.47 35.86z"/>
   <polygon class="fil1" points="721.61,291.92 728.07,291.92 728.07,255.95 721.61,255.95 "/>
   <path class="fil1" d="M722.07 250.86l5.54 0c0.87,-1.36 0.46,-10.28 0.46,-11.98l-6.46 0 -0.03 9.26c0,0.29 0.02,1.07 0.05,1.33 0.02,0.14 0.05,0.26 0.07,0.39 0.03,0.12 0.08,0.25 0.11,0.35 0.02,0.1 0.1,0.26 0.12,0.34 0.03,0.07 0.08,0.22 0.14,0.31z"/>
   <path class="fil3" d="M605.04 205.22c0.05,-0.1 0.13,-0.34 0.15,-0.29l0.23 -37.53c0,-12.76 0,-25.52 0,-38.27l67.78 0c0.63,0 1.79,0.08 2.34,0.04 2.42,-0.17 1.16,-0.11 1.81,-0.61 -12.14,0 -24.29,0 -36.43,0 -5.38,0 -32.82,-0.6 -35.87,0.33l-0.01 76.33z"/>
   <path class="fil4" d="M725.76 12.92l-2.27 -0.5c-28.39,-0.45 -60.16,0.03 -89.02,0.03l-4.63 -0.02c-2.4,0.28 -0.47,-0.09 -1.37,0.48l97.29 0.01z"/>
   <path class="fil4" d="M448.34 161.41c-24.25,0 -52.12,-0.43 -76.26,-0.03l-2.28 0.5 77.46 -0.04c0.76,-0.14 0.76,-0.26 1.08,-0.43z"/>
   <path class="fil5" d="M472.16 137.54c0.06,-0.11 0.16,-0.38 0.18,-0.32l0.29 -80.96c-1.07,1.68 -0.47,38.4 -0.47,40.12 0,13.72 0,27.44 0,41.16z"/>
   <path class="fil4" d="M817.06 12.92c-0.1,-0.06 -0.23,-0.28 -0.29,-0.18l-41.64 -0.26c-0.92,0.19 -0.47,0.13 -0.95,0.44l42.88 0z"/>
   <path class="fil4" d="M515.97 12.92c-0.49,-0.32 -0.01,-0.28 -0.96,-0.44 -0.41,-0.06 -1.34,-0.05 -1.79,-0.05l-20.79 0c-2.43,0.29 -0.43,-0.11 -1.36,0.49l24.9 0z"/>
   <path class="fil4" d="M595.26 262.4c0.33,-0.51 0.28,0.02 0.44,-0.95 0.07,-0.41 0.05,-1.35 0.05,-1.8 -0.01,-2.07 0.53,-7.93 -0.49,-9.24l0 11.99z"/>
   <path class="fil6" d="M657.98 270.7c0.73,-1.15 0.69,-7.99 0.48,-9.7 -0.28,-2.42 0.11,-0.45 -0.48,-1.37l0 11.07z"/>
   <path class="fil6" d="M840.6 270.7c0.88,-1.46 0.44,-6.37 0.45,-8.32 0,-0.23 0.02,-1.22 0,-1.38l-0.45 -1.37 0 11.07z"/>
   <path class="fil6" d="M818.47 285.46l-6.82 0c0.54,0.75 1.92,0.48 3.09,0.48 1.64,0.01 2.56,0.25 3.73,-0.48z"/>
   <path class="fil6" d="M635.86 285.46l-6.82 0c0.52,0.71 5.57,0.8 6.82,0z"/>
   <path class="fil5" d="M727.61 250.86l-5.54 0c0.94,0.61 2.94,0.65 4.17,0.49 1.5,-0.18 0.67,-0.03 1.37,-0.49z"/>
   <path class="fil6" d="M594.81 262.89l-5.53 0c1.35,0.81 4.47,0.64 5.53,0z"/>
   <path class="fil7" d="M160.93 305.21c-1.16,0 -2.09,-0.29 -2.63,0.54 0.17,0 1.23,0.03 1.27,0.02 1.78,-0.31 0.68,-0.05 1.36,-0.56z"/>
   <path class="fil7" d="M147.43 305.75c-0.9,-0.84 -1.15,-0.54 -2.64,-0.54 0.63,0.47 -0.15,0.29 0.96,0.5 0.42,0.09 1.22,0.04 1.68,0.04z"/>
   <path class="fil7" d="M0.48 169.25c0,-1.54 0.25,-1.34 -0.47,-2.23 0,0.3 -0.03,1.01 0.03,1.28 0.22,0.89 0.12,0.46 0.44,0.95z"/>
   <path class="fil7" d="M305.25 170.17c0.79,0 0.46,-1.09 0.46,-2 -0.06,0.11 -0.17,0.14 -0.18,0.33 -0.02,0.19 -0.14,0.26 -0.15,0.35 -0.13,0.64 -0.13,0.65 -0.13,1.32z"/>
   <path class="fil6" d="M746.51 271.71c0,-0.32 0.03,-1.13 -0.03,-1.43 -0.19,-0.89 -0.06,-0.49 -0.4,-0.96 0,0.33 -0.03,1.06 0.04,1.36 0.33,1.62 0.05,0.39 0.39,1.03z"/>
   <path class="fil8" d="M192.3 239.4c0.89,0.62 -1.28,0.7 1.37,0.45l-0.67 -0.77 -0.7 0.32z"/>
   <path class="fil4" d="M789.39 259.31c0.39,-0.49 0.49,0.66 0.48,-1.52 -0.45,0.47 -0.48,-0.64 -0.48,1.52z"/>
   <path class="fil7" d="M0.01 137.55c0.35,-0.44 0.47,0.52 0.47,-1.51 -0.44,0.47 -0.47,-0.58 -0.47,1.51z"/>
   <path class="fil7" d="M171.99 0.47c-0.45,-0.43 0.41,-0.47 -1.55,-0.47 0.42,0.31 -0.22,0.47 1.55,0.47z"/>
   <path class="fil7" d="M135.29 0c-1.93,0 -1.1,0.03 -1.57,0.47 1.73,0 1.14,-0.15 1.57,-0.47z"/>
   <path class="fil7" d="M181.22 302.97c-1.81,0.06 -0.94,0.09 -1.34,0.47 2.27,0 0.77,0.07 1.34,-0.47z"/>
   <path class="fil4" d="M607.26 272.55c-0.01,-1.66 -0.13,-1.09 -0.46,-1.54 0,1.86 0.04,1.08 0.46,1.54z"/>
   <path class="fil4" d="M358.27 271.72c0,-1.74 -0.04,-1.04 -0.43,-1.48 0,1.62 0.1,1.04 0.43,1.48z"/>
   <path class="fil6" d="M458.79 204.27c-1.81,0 -0.6,-0.13 -1.04,0.49 1.73,0 0.68,0.14 1.04,-0.49z"/>
   <path class="fil4" d="M606.8 259.65c0.06,-0.09 0.17,-0.34 0.19,-0.28 0.01,0.06 0.13,-0.24 0.15,-0.31 0.13,-0.63 0.12,-0.61 0.12,-1.27 -0.06,0.09 -0.17,0.11 -0.19,0.27 -0.01,0.17 -0.13,0.24 -0.15,0.31 -0.13,0.63 -0.12,0.62 -0.12,1.28z"/>
   <path class="fil4" d="M515.48 145.73c0.63,-0.36 0.49,0.68 0.49,-1.03 -0.61,0.43 -0.48,-0.76 -0.49,1.03z"/>
   <path class="fil6" d="M844.74 181.7c0,-0.85 0.25,-0.7 -0.48,-0.7 0,0.85 -0.25,0.7 0.48,0.7z"/>
   <path class="fil6" d="M613.94 14.76c-0.83,0 -0.68,-0.25 -0.68,0.47 0.83,0 0.68,0.24 0.68,-0.47z"/>
   <path class="fil6" d="M861.98 265.63c0,-0.72 0.16,-0.49 -0.66,-0.49 0,0.72 -0.15,0.49 0.66,0.49z"/>
   <path class="fil6" d="M889.45 183.3c0,-0.83 0.24,-0.68 -0.47,-0.68 0,0.82 -0.24,0.68 0.47,0.68z"/>
   <path class="fil6" d="M764.96 33.66c-0.7,0 -0.47,-0.14 -0.47,0.68 0.71,0 0.47,0.14 0.47,-0.68z"/>
   <path class="fil6" d="M467.09 246.23c-0.8,0 -0.65,-0.22 -0.65,0.49 0.8,0 0.65,0.23 0.65,-0.49z"/>
   <path class="fil6" d="M862.25 118.68c0,-0.78 0.21,-0.62 -0.5,-0.62 0,0.78 -0.22,0.62 0.5,0.62z"/>
   <path class="fil6" d="M704.09 178.47c-0.69,0 -0.46,-0.14 -0.46,0.65 0.69,0 0.46,0.15 0.46,-0.65z"/>
   <path class="fil7" d="M301.56 191.21c-0.69,0 -0.47,-0.14 -0.47,0.63 0.69,0 0.47,0.15 0.47,-0.63z"/>
   <path class="fil6" d="M456.95 274.06c0,-0.75 0.2,-0.59 -0.5,-0.59 0,0.75 -0.2,0.59 0.5,0.59z"/>
   <path class="fil4" d="M800.46 76.55c0,-0.77 0.22,-0.63 -0.46,-0.63 0,0.78 -0.22,0.63 0.46,0.63z"/>
   <path class="fil6" d="M719.31 29.8c-0.68,0 -0.45,-0.14 -0.45,0.64 0.67,0 0.45,0.14 0.45,-0.64z"/>
   <path class="fil6" d="M738.21 201.82c-0.67,0 -0.45,-0.14 -0.45,0.63 0.67,0 0.45,0.14 0.45,-0.63z"/>
   <path class="fil6" d="M473.09 54.88c-0.68,0 -0.47,-0.15 -0.47,0.62 0.68,0 0.47,0.14 0.47,-0.62z"/>
   <path class="fil6" d="M405.81 275.31c0,-0.73 0.19,-0.57 -0.5,-0.57 0,0.74 -0.2,0.57 0.5,0.57z"/>
   <path class="fil6" d="M609.57 279.93c0,-0.76 0.22,-0.62 -0.46,-0.62 0,0.76 -0.22,0.62 0.46,0.62z"/>
   <path class="fil7" d="M108.48 299.29c0,-0.69 0.16,-0.49 -0.58,-0.49 0,0.69 -0.16,0.49 0.58,0.49z"/>
   <path class="fil4" d="M713.31 44.15c-0.67,0 -0.47,-0.15 -0.47,0.58 0.68,0 0.47,0.15 0.47,-0.58z"/>
   <path class="fil4" d="M643.23 290.52c-0.74,0 -0.59,-0.2 -0.59,0.47 0.74,0 0.59,0.21 0.59,-0.47z"/>
   <path class="fil6" d="M355.5 195.53c-0.66,0 -0.45,-0.14 -0.45,0.6 0.66,0 0.45,0.15 0.45,-0.6z"/>
   <path class="fil7" d="M4.64 191.38c0,-0.72 0.2,-0.56 -0.48,-0.56 0,0.72 -0.2,0.56 0.48,0.56z"/>
   <path class="fil6" d="M467.23 239.34c-0.74,0 -0.6,-0.21 -0.6,0.46 0.74,0 0.6,0.21 0.6,-0.46z"/>
   <path class="fil7" d="M100.16 8.3c-0.72,0 -0.56,-0.19 -0.56,0.49 0.72,0 0.56,0.19 0.56,-0.49z"/>
   <path class="fil6" d="M741.89 88.54c-0.66,0 -0.45,-0.14 -0.45,0.6 0.66,0 0.45,0.14 0.45,-0.6z"/>
   <path class="fil6" d="M789.95 272.55l-0.56 -1.22c0,2.2 -0.12,0.61 0.56,1.22z"/>
   <path class="fil9" d="M2.31 181.24c0,-0.74 0.2,-0.59 -0.46,-0.59 0,0.73 -0.2,0.59 0.46,0.59z"/>
   <path class="fil4" d="M466.63 202.43c-0.71,0 -0.56,-0.19 -0.56,0.48 0.72,0 0.56,0.19 0.56,-0.48z"/>
   <path class="fil4" d="M825.82 290.52c-0.72,0 -0.56,-0.19 -0.56,0.47 0.71,0 0.56,0.2 0.56,-0.47z"/>
   <path class="fil6" d="M357.77 260.56c0.6,-0.59 0.5,0.97 0.5,-1.31l-0.5 1.31z"/>
   <path class="fil7" d="M206.11 8.79c0,-0.67 0.16,-0.49 -0.54,-0.49 0,0.68 -0.16,0.49 0.54,0.49z"/>
   <path class="fil6" d="M885.3 173.48c0,-0.7 0.19,-0.54 -0.48,-0.54 0,0.7 -0.19,0.54 0.48,0.54z"/>
   <path class="fil6" d="M794.93 67.22c-0.66,0 -0.46,-0.14 -0.46,0.57 0.65,0 0.46,0.15 0.46,-0.57z"/>
   <path class="fil7" d="M231.47 284.06c-0.7,0 -0.55,-0.19 -0.55,0.48 0.71,0 0.55,0.19 0.55,-0.48z"/>
   <path class="fil6" d="M769.13 23.98c-0.67,0 -0.49,-0.16 -0.49,0.54 0.67,0 0.49,0.16 0.49,-0.54z"/>
   <path class="fil6" d="M680.11 122.6c-0.67,0 -0.49,-0.16 -0.49,0.53 0.67,0 0.49,0.16 0.49,-0.53z"/>
   <path class="fil6" d="M834.17 258.25l-0.51 -1.27c0,2.26 -0.11,0.67 0.51,1.27z"/>
   <path class="fil4" d="M747.9 74.25c-0.65,0 -0.47,-0.16 -0.47,0.54 0.66,0 0.47,0.15 0.47,-0.54z"/>
   <path class="fil7" d="M75.67 285c0,-0.67 0.17,-0.5 -0.51,-0.5 0,0.67 -0.16,0.5 0.51,0.5z"/>
   <path class="fil7" d="M297.41 100.14c0,-0.69 0.18,-0.53 -0.48,-0.53 0,0.68 -0.18,0.53 0.48,0.53z"/>
   <path class="fil7" d="M128.24 303.91c0,-0.67 0.16,-0.5 -0.51,-0.5 0,0.67 -0.16,0.5 0.51,0.5z"/>
   <path class="fil7" d="M89.96 12.45c-0.67,0 -0.5,-0.16 -0.5,0.5 0.66,0 0.5,0.17 0.5,-0.5z"/>
   <path class="fil6" d="M483.27 30.9c-0.67,0 -0.5,-0.17 -0.5,0.5 0.66,0 0.5,0.16 0.5,-0.5z"/>
   <path class="fil4" d="M746.97 257.74c-0.65,0 -0.48,-0.16 -0.48,0.51 0.65,0 0.48,0.16 0.48,-0.51z"/>
   <path class="fil6" d="M602.23 18.91c-0.66,0 -0.5,-0.17 -0.5,0.48 0.66,0 0.5,0.17 0.5,-0.48z"/>
   <path class="fil6" d="M692.1 94.04c-0.65,0 -0.48,-0.16 -0.48,0.5 0.65,0 0.48,0.16 0.48,-0.5z"/>
   <path class="fil6" d="M651.55 258.25l-0.48 -1.25c0,2.22 -0.1,0.66 0.48,1.25z"/>
   <path class="fil6" d="M610.51 248.1c-0.65,0 -0.48,-0.15 -0.48,0.51 0.65,0 0.48,0.16 0.48,-0.51z"/>
   <path class="fil6" d="M512.81 276.7l-0.53 -0.83c0,1.46 -0.15,0.47 0.53,0.83z"/>
   <path class="fil7" d="M125.85 303.44l-0.89 -0.48c0.36,0.62 -0.65,0.48 0.89,0.48z"/>
   <path class="fil6" d="M833.66 272.93l0.51 -0.84c-0.65,0.35 -0.51,-0.64 -0.51,0.84z"/>
   <path class="fil6" d="M584.73 30.49c-0.68,-0.07 -0.52,-0.23 -0.52,0.43l0.52 -0.43z"/>
   <path class="fil6" d="M585.17 29.98c-0.67,0 -0.52,-0.17 -0.44,0.51l0.44 -0.51z"/>
   <path class="fil6" d="M456.99 285.92l-0.44 -0.5c-0.08,0.66 -0.23,0.5 0.44,0.5z"/>
   <path class="fil6" d="M456.55 285.42l-0.52 -0.44c-0.01,0.66 -0.16,0.49 0.52,0.44z"/>
   <polygon class="fil7" points="221.33,15.21 220.74,14.76 "/>
   <polygon class="fil4" points="725.76,14.7 725.33,15.22 "/>
   <polygon class="fil6" points="487.83,19.83 487.38,20.32 "/>
   <polygon class="fil6" points="598.51,20.75 598.04,21.22 "/>
   <polygon class="fil6" points="597.62,21.21 597.12,21.64 "/>
   <polygon class="fil6" points="721.61,24.45 721.16,24.9 "/>
   <polygon class="fil4" points="485.51,25.36 485.07,25.97 "/>
   <polygon class="fil7" points="247.61,31.81 247.16,31.36 "/>
   <polygon class="fil6" points="715.62,38.76 715.18,39.2 "/>
   <polygon class="fil6" points="762.67,39.2 762.19,39.68 "/>
   <polygon class="fil6" points="477.25,45.19 476.77,45.68 "/>
   <polygon class="fil6" points="711.01,49.81 710.55,50.27 "/>
   <polygon class="fil6" points="484.61,194.14 484.15,194.61 "/>
   <polygon class="fil4" points="848.39,190.46 847.95,190.02 "/>
   <polygon class="fil6" points="740.52,196.47 740.07,196.92 "/>
   <polygon class="fil6" points="695.76,198.3 695.33,198.76 "/>
   <polygon class="fil4" points="744.67,186.72 744.23,187.23 "/>
   <polygon class="fil4" points="473.09,200.17 472.56,200.61 "/>
   <polygon class="fil6" points="359.67,185.85 359.2,186.32 "/>
   <polygon class="fil6" points="701.79,184 701.33,184.47 "/>
   <polygon class="fil6" points="897.75,202.92 897.31,202.45 "/>
   <polygon class="fil6" points="746.51,182.19 746.08,182.62 "/>
   <polygon class="fil9" points="303.87,181.05 303.43,181.7 "/>
   <polygon class="fil5" points="371.2,238.88 370.72,239.34 "/>
   <polygon class="fil4" points="623.43,238.88 622.94,239.37 "/>
   <polygon class="fil4" points="701.33,239.37 700.84,238.88 "/>
   <polygon class="fil5" points="759.48,238.88 758.96,239.34 "/>
   <polygon class="fil5" points="805.98,238.88 805.53,239.33 "/>
   <polygon class="fil6" points="863.18,238.88 862.71,239.36 "/>
   <polygon class="fil6" points="499.83,180.77 499.4,181.24 "/>
   <polygon class="fil6" points="369.31,239.34 368.42,239.8 "/>
   <polygon class="fil4" points="842.4,176.16 841.96,175.72 "/>
   <polygon class="fil6" points="587.9,239.78 587.47,239.34 "/>
   <polygon class="fil6" points="757.59,239.34 756.66,239.8 "/>
   <polygon class="fil7" points="278.51,240.74 278.05,241.19 "/>
   <polygon class="fil6" points="617.39,241.19 616.95,241.63 "/>
   <polygon class="fil6" points="708.7,244.87 708.28,244.42 "/>
   <polygon class="fil6" points="505.36,173.4 504.9,173.86 "/>
   <polygon class="fil6" points="621.56,246.25 621.08,246.72 "/>
   <polygon class="fil6" points="804.15,246.27 803.7,246.72 "/>
   <polygon class="fil4" points="697.61,193.69 697.18,194.22 "/>
   <polygon class="fil6" points="753.89,248.06 753.43,248.57 "/>
   <polygon class="fil6" points="355.52,249.03 355.05,249.48 "/>
   <polygon class="fil6" points="365.67,171.55 365.19,172.03 "/>
   <polygon class="fil6" points="707.78,169.71 707.32,170.17 "/>
   <polygon class="fil4" points="367.93,166.02 367.5,166.61 "/>
   <polygon class="fil6" points="656.6,251.79 656.15,251.33 "/>
   <polygon class="fil6" points="839.19,251.76 838.76,251.33 "/>
   <polygon class="fil6" points="832.25,252.26 831.81,251.75 "/>
   <polygon class="fil6" points="749.28,252.74 748.84,253.18 "/>
   <polygon class="fil6" points="741.43,253.64 740.98,254.09 "/>
   <polygon class="fil4" points="511.82,160.95 511.36,161.41 "/>
   <polygon class="fil6" points="712.41,158.64 711.93,159.12 "/>
   <polygon class="fil6" points="515.08,148.49 515.51,147.42 "/>
   <polygon class="fil6" points="718.83,143.42 718.38,143.94 "/>
   <polygon class="fil4" points="724.84,129.13 724.38,129.6 "/>
   <polygon class="fil7" points="303.87,123.61 303.38,123.13 "/>
   <polygon class="fil6" points="681.5,119.41 681.04,119.9 "/>
   <polygon class="fil6" points="774.18,116.68 773.72,117.14 "/>
   <polygon class="fil4" points="815.19,111.6 814.75,111.1 "/>
   <polygon class="fil6" points="888.07,260.56 887.6,260.1 "/>
   <polygon class="fil6" points="858.1,108.85 857.62,108.37 "/>
   <polygon class="fil4" points="686.11,108.4 685.67,108.83 "/>
   <polygon class="fil6" points="813.33,106.99 812.91,106.56 "/>
   <polygon class="fil7" points="299.72,106.98 299.26,106.53 "/>
   <polygon class="fil6" points="780.17,102.39 779.73,102.84 "/>
   <polygon class="fil6" points="897.75,270.22 897.31,269.78 "/>
   <polygon class="fil7" points="8.76,100.07 8.31,100.53 "/>
   <polygon class="fil4" points="782.48,96.74 782.04,97.31 "/>
   <polygon class="fil6" points="852.1,94.55 851.63,94.08 "/>
   <polygon class="fil6" points="784.32,92.21 783.89,92.69 "/>
   <polygon class="fil9" points="123.17,1.84 122.66,2.29 "/>
   <polygon class="fil6" points="450.02,273.47 449.57,272.53 "/>
   <polygon class="fil6" points="784.78,91.34 784.35,91.77 "/>
   <polygon class="fil6" points="797.23,274.83 796.79,274.39 "/>
   <polygon class="fil7" points="293.26,89.94 292.79,89.47 "/>
   <polygon class="fil6" points="352.74,276.24 352.28,275.74 "/>
   <polygon class="fil9" points="183.06,2.29 182.56,1.84 "/>
   <polygon class="fil4" points="353.18,277.62 352.74,277.07 "/>
   <polygon class="fil6" points="414.53,278.55 414.02,278.08 "/>
   <polygon class="fil6" points="616.48,278.58 616.01,278.08 "/>
   <polygon class="fil6" points="799.08,278.55 798.63,278.08 "/>
   <polygon class="fil4" points="451.85,279 451.41,278.57 "/>
   <polygon class="fil4" points="804.61,86.24 804.15,85.74 "/>
   <polygon class="fil6" points="617.85,280.39 617.4,279.93 "/>
   <polygon class="fil6" points="618.33,280.82 617.85,280.39 "/>
   <polygon class="fil6" points="890.86,280.39 890.37,280.87 "/>
   <polygon class="fil6" points="897.75,281.24 897.31,281.77 "/>
   <polygon class="fil6" points="418.68,282.71 418.17,282.23 "/>
   <polygon class="fil6" points="793.98,282.69 793.54,282.26 "/>
   <polygon class="fil7" points="15.22,84.85 14.76,85.36 "/>
   <polygon class="fil6" points="455.56,284.54 455.1,284.05 "/>
   <polygon class="fil6" points="847.49,83.5 847.01,83.01 "/>
   <polygon class="fil6" points="456.03,284.98 455.56,284.54 "/>
   <polygon class="fil6" points="425.59,285.43 425.16,285 "/>
   <polygon class="fil7" points="193.2,4.62 192.73,4.15 "/>
   <polygon class="fil5" points="470.32,285.44 469.87,285 "/>
   <polygon class="fil7" points="17.09,81.16 16.61,81.65 "/>
   <polygon class="fil6" points="579.59,35.51 579.14,35.97 "/>
   <polygon class="fil6" points="817.98,13.51 817.53,12.91 "/>
   <polygon class="fil6" points="746.06,78.86 745.59,79.32 "/>
   <polygon class="fil6" points="605.43,78.4 605.88,77.45 "/>
   <polygon class="fil6" points="790.78,77.04 790.34,77.48 "/>
   <polygon class="fil6" points="614.64,286.38 614.18,285.95 "/>
   <polygon class="fil6" points="798.61,71.94 798.15,71.39 "/>
   <polygon class="fil4" points="798.13,71.02 797.69,70.58 "/>
   <polygon class="fil6" points="616.92,288.23 616.48,287.76 "/>
   <polygon class="fil6" points="841.04,68.32 840.6,67.79 "/>
   <polygon class="fil6" points="520.56,288.69 520.12,288.24 "/>
   <polygon class="fil6" points="367.49,290.99 367.04,290.54 "/>
   <polygon class="fil5" points="562.98,67.79 562.54,68.33 "/>
   <polygon class="fil6" points="563,66.82 563.44,65.95 "/>
   <polygon class="fil4" points="755.72,290.99 755.27,290.55 "/>
   <polygon class="fil6" points="752.05,64.56 751.58,65.04 "/>
   <polygon class="fil4" points="565.29,59.49 564.84,60.02 "/>
   <polygon class="fil4" points="888.53,290.52 888.02,290.99 "/>
   <polygon class="fil6" points="623.4,57.62 622.92,58.11 "/>
   <polygon class="fil6" points="625.24,57.22 624.19,57.65 "/>
   <polygon class="fil7" points="96.38,295.14 95.91,294.67 "/>
   <polygon class="fil7" points="209.8,294.69 209.35,295.14 "/>
   <polygon class="fil6" points="708.7,55.18 708.28,55.8 "/>
   <polygon class="fil9" points="116.75,301.6 116.2,301.14 "/>
   <polygon class="fil9" points="189.52,301.14 188.97,301.6 "/>
   <polygon class="fil6" points="615.55,14.3 615.1,14.74 "/>
   <polygon class="fil4" points="835.04,53.97 834.59,53.49 "/>
   <polygon class="fil6" points="756.63,53.49 756.19,53.96 "/>
   <polygon class="fil6" points="758.03,50.27 757.58,50.75 "/>
   <polygon class="fil6" points="884.35,285 883.92,285.44 "/>
  </g>
 </g>
</svg>
